<!-- <?xml version="1.0" encoding="UTF-8" standalone="no"?>
<svg
   fill="none"
   shapeRendering="geometricPrecision"
   stroke="currentColor"
   strokeLinecap="round"
   strokeLinejoin="round"
   strokeWidth="1.5"
   viewBox="0 0 24 24"
   width="24"
   height="24"
   version="1.1"
   id="svg6"
   sodipodi:docname="link.svg"
   xmlns:inkscape="http://www.inkscape.org/namespaces/inkscape"
   xmlns:sodipodi="http://sodipodi.sourceforge.net/DTD/sodipodi-0.dtd"
   xmlns="http://www.w3.org/2000/svg"
   xmlns:svg="http://www.w3.org/2000/svg">
  <defs
     id="defs10" />
  <sodipodi:namedview
     id="namedview8"
     pagecolor="#ffffff"
     bordercolor="#000000"
     borderopacity="0.25"
     inkscape:showpageshadow="2"
     inkscape:pageopacity="0.0"
     inkscape:pagecheckerboard="0"
     inkscape:deskcolor="#d1d1d1" />
  <path
     d="M15 7h3a5 5 0 015 5 5 5 0 01-5 5h-3m-6 0H6a5 5 0 01-5-5 5 5 0 015-5h3"
     id="path2" />
  <path
     d="M8 12h8"
     id="path4" />
</svg> -->
 <svg
    y="0"
    xmlns="http://www.w3.org/2000/svg"
    x="0"
    width="100"
    viewBox="0 0 100 100"
    preserveAspectRatio="xMidYMid meet"
    height="100"
    class="w-8 h-8 absolute right-0 -rotate-45 stroke-pink-300 top-1.5 group-hover:rotate-0 duration-300"
  >
    <path
      stroke-width="4"
      stroke-linejoin="round"
      stroke-linecap="round"
      fill="none"
      d="M60.7,53.6,50,64.3m0,0L39.3,53.6M50,64.3V35.7m0,46.4A32.1,32.1,0,1,1,82.1,50,32.1,32.1,0,0,1,50,82.1Z"
      class="svg-stroke-primary"
    ></path>
  </svg>